<?xml version="1.0" encoding="utf-8"?>
<!-- Generator: Adobe Illustrator 24.1.2, SVG Export Plug-In . SVG Version: 6.00 Build 0)  -->
<svg version="1.1" id="Camada_1" xmlns="http://www.w3.org/2000/svg" xmlns:xlink="http://www.w3.org/1999/xlink" x="0px" y="0px"
	 viewBox="0 0 100 100" style="enable-background:new 0 0 100 100;" xml:space="preserve">
<style type="text/css">
	.st0{fill:#3B5A99;}
	.st1{fill:#FFFFFF;}
</style>
<g>
	<path class="st0" d="M89.7,63.58H10.3c-3.64,0-6.6-2.95-6.6-6.6V43.01c0-3.64,2.95-6.6,6.6-6.6h79.4c3.64,0,6.6,2.95,6.6,6.6v13.97
		C96.3,60.63,93.34,63.58,89.7,63.58z"/>
	<path class="st1" d="M87.67,61.7H65.22c-3.56,0-6.44-2.89-6.44-6.44V44.35c0-3.56,2.89-6.44,6.44-6.44h22.45
		c3.56,0,6.44,2.89,6.44,6.44v10.91C94.11,58.81,91.22,61.7,87.67,61.7z"/>
	<g>
		<path class="st1" d="M6.5,57.68V41.94c0-0.28,0.14-0.43,0.43-0.43h7.23c0.64,0,1.24,0.12,1.79,0.36c0.55,0.24,1.03,0.57,1.43,0.99
			c0.4,0.42,0.72,0.91,0.95,1.47c0.23,0.56,0.35,1.17,0.35,1.82c0,0.64-0.1,1.22-0.31,1.75c-0.21,0.52-0.53,0.97-0.96,1.34
			c0.64,0.43,1.15,1.01,1.51,1.74c0.37,0.72,0.55,1.5,0.55,2.34c0,0.64-0.12,1.25-0.36,1.84c-0.24,0.58-0.56,1.09-0.97,1.53
			c-0.41,0.44-0.9,0.79-1.46,1.05c-0.56,0.26-1.15,0.39-1.78,0.39H6.92C6.64,58.13,6.5,57.98,6.5,57.68z M13.3,44.2H9.76v4.05h3.52
			c0.66,0,1.18-0.18,1.57-0.55c0.39-0.37,0.58-0.86,0.58-1.49c0-0.61-0.19-1.1-0.58-1.47C14.46,44.38,13.94,44.2,13.3,44.2z
			 M13.95,50.83H9.76v4.57H14c0.34,0,0.65-0.06,0.92-0.19c0.27-0.13,0.49-0.3,0.67-0.51c0.18-0.22,0.31-0.46,0.4-0.72
			c0.09-0.26,0.13-0.53,0.13-0.79c0-0.33-0.06-0.63-0.18-0.92c-0.12-0.28-0.28-0.53-0.48-0.75c-0.2-0.22-0.43-0.38-0.69-0.5
			C14.51,50.89,14.23,50.83,13.95,50.83z"/>
		<path class="st1" d="M29.45,55.33c0.43,0,0.88-0.06,1.33-0.18c0.46-0.12,0.86-0.31,1.22-0.58v-3.43c0-0.3,0.15-0.45,0.45-0.45
			h1.99c0.1,0,0.2,0.03,0.29,0.09c0.09,0.06,0.13,0.18,0.13,0.36v5.08c0,0.19-0.07,0.36-0.22,0.49c-0.67,0.46-1.45,0.85-2.34,1.16
			c-0.89,0.31-1.84,0.47-2.85,0.47c-1.18,0-2.29-0.22-3.34-0.67c-1.05-0.45-1.96-1.06-2.74-1.84c-0.78-0.78-1.4-1.69-1.85-2.73
			c-0.45-1.04-0.67-2.16-0.67-3.34c0-1.18,0.22-2.29,0.67-3.33c0.45-1.04,1.06-1.94,1.82-2.71c0.77-0.77,1.68-1.37,2.72-1.81
			c1.04-0.44,2.16-0.66,3.34-0.66c1.02,0,1.93,0.15,2.73,0.44c0.81,0.29,1.57,0.71,2.28,1.24c0.12,0.09,0.19,0.19,0.2,0.29
			c0.01,0.1-0.02,0.2-0.09,0.29l-1.32,1.9c-0.07,0.08-0.16,0.13-0.27,0.16c-0.1,0.03-0.22,0-0.36-0.09
			c-0.43-0.33-0.91-0.59-1.42-0.79c-0.52-0.2-1.09-0.3-1.71-0.3c-0.78,0-1.5,0.14-2.16,0.41c-0.66,0.28-1.24,0.66-1.72,1.14
			c-0.49,0.49-0.87,1.05-1.14,1.7C24.14,48.31,24,49.01,24,49.78c0,0.76,0.14,1.48,0.43,2.16c0.28,0.68,0.67,1.27,1.15,1.78
			c0.48,0.51,1.06,0.91,1.72,1.2C27.97,55.21,28.68,55.34,29.45,55.33z"/>
		<path class="st1" d="M45.39,57.39l-3.74-10.28l-1.19,10.57c-0.03,0.3-0.18,0.45-0.45,0.45h-2.28c-0.31,0-0.46-0.15-0.43-0.45
			l1.7-15.74c0.03-0.3,0.19-0.45,0.47-0.45h2.91c0.12,0,0.2,0.03,0.26,0.1c0.05,0.07,0.1,0.17,0.15,0.3l4.01,11.08l3.94-11.06
			c0.06-0.15,0.12-0.26,0.17-0.32c0.05-0.07,0.14-0.1,0.26-0.1h2.98c0.28,0,0.44,0.15,0.47,0.45l1.68,15.74
			c0.04,0.3-0.1,0.45-0.43,0.45h-2.28c-0.25,0-0.4-0.14-0.45-0.43l-1.14-10.59l-3.81,10.28c-0.07,0.16-0.14,0.27-0.2,0.32
			c-0.06,0.05-0.15,0.08-0.27,0.08h-1.88c-0.12,0-0.21-0.03-0.27-0.08C45.51,57.66,45.45,57.55,45.39,57.39z"/>
	</g>
	<g>
		<path class="st0" d="M60.67,57.66l6.31-15.72c0.13-0.28,0.32-0.43,0.56-0.43h1.88c0.27,0,0.46,0.14,0.56,0.43l6.31,15.72
			c0.07,0.15,0.08,0.27,0.01,0.35c-0.07,0.08-0.18,0.12-0.32,0.12h-2.44c-0.27,0-0.46-0.13-0.56-0.4l-1.07-2.69h-6.87l-1.05,2.69
			c-0.1,0.27-0.29,0.4-0.56,0.4h-2.46C60.63,58.13,60.54,57.97,60.67,57.66z M68.49,45.81l-2.4,6.34h4.75L68.49,45.81z"/>
		<path class="st0" d="M78.18,57.68V41.96c0-0.3,0.15-0.45,0.45-0.45h5.35c1.06,0,2.09,0.21,3.1,0.64c1.01,0.43,1.9,1.01,2.69,1.76
			c0.78,0.75,1.41,1.63,1.89,2.64c0.48,1.02,0.72,2.1,0.72,3.27c0,1.12-0.21,2.18-0.64,3.17c-0.43,0.99-1.02,1.86-1.77,2.61
			c-0.75,0.75-1.63,1.34-2.64,1.79c-1.01,0.45-2.09,0.69-3.26,0.74h-5.44C78.33,58.13,78.18,57.98,78.18,57.68z M89.09,49.82
			c0-0.73-0.14-1.42-0.41-2.06c-0.28-0.64-0.65-1.2-1.13-1.68c-0.48-0.48-1.05-0.85-1.71-1.13c-0.66-0.28-1.38-0.41-2.14-0.41h-2.22
			V55.1h2.22c0.76,0,1.47-0.14,2.14-0.41c0.66-0.28,1.24-0.65,1.71-1.13c0.48-0.48,0.85-1.04,1.13-1.68
			C88.95,51.24,89.09,50.55,89.09,49.82z"/>
	</g>
</g>
</svg>
